<svg width="72" height="72" viewBox="0 0 72 72" fill="none" xmlns="http://www.w3.org/2000/svg">
<path d="M67.1217 0.0903388C66.8507 0.0903388 66.7604 0.271016 66.5797 0.361355L32.7026 24.3915C32.3413 24.6625 31.7993 25.3852 31.5282 25.8369L30.3538 28.0954C36.8582 30.1732 41.8269 35.1418 43.9046 41.6462L46.1631 40.4718C46.6148 40.2008 47.2472 39.7491 47.6085 39.2974L71.6387 5.42033C71.9097 4.96863 72 4.60728 71.6387 4.24592L67.6637 0.271016C67.4831 0.0903388 67.3024 0 67.1217 0V0.0903388ZM23.9398 35.9548C17.2547 35.9548 12.1054 41.4655 12.1054 48.0602C12.1054 57.0038 7.13676 64.7729 0 68.9285C3.52321 70.9159 7.76914 72 12.1054 72C25.3852 72 36.1355 61.34 36.1355 47.9699C36.1355 41.2848 30.6248 35.8645 24.0301 35.8645L23.9398 35.9548Z" fill="white"/>
</svg>
